<svg xmlns="http://www.w3.org/2000/svg" xml:space="preserve" width="50" height="50" viewBox="0 0 297 297"><path d="M191.004 2.958a10.13 10.13 0 0 0-7.86-2.933 10.098 10.098 0 0 0-7.365 4.015s-44.63 62.53-61.39 81.854c-10.105 11.652-43.623 43.623-43.623 43.623-13.694 13.695-13.694 35.978 0 49.673l.012.011c-1.922 6.951-6.391 18.518-16.3 28.427-4.083 4.084-9.025 7.606-14.256 11.335C23.763 230.696 3.279 245.297.033 286.096a10.103 10.103 0 0 0 10.871 10.871c40.798-3.246 55.4-23.73 67.133-40.189 3.729-5.232 7.251-10.173 11.335-14.256 9.91-9.91 21.476-14.379 28.427-16.3l.011.012c13.697 13.695 35.979 13.694 49.674 0 0 0 31.971-33.518 43.622-43.623 19.324-16.76 81.854-61.391 81.854-61.391a10.101 10.101 0 0 0 1.082-15.225L191.004 2.958zm-68.966 103.86 68.143 68.143-16.624 16.624-68.143-68.143 16.624-16.624zm31.159 105.129c-5.819 5.819-15.284 5.817-21.101 0l-3.956-3.956a10.108 10.108 0 0 0-8.906-2.804c-7.711 1.366-27.447 6.347-44.149 23.048-5.273 5.273-9.456 11.141-13.501 16.815-9.525 13.363-17.945 25.174-39.579 29.944 4.769-21.636 16.582-30.055 29.944-39.579 5.675-4.045 11.542-8.228 16.815-13.501 16.7-16.699 21.682-36.438 23.048-44.149a10.106 10.106 0 0 0-2.804-8.906l-3.956-3.956c-5.818-5.817-5.818-15.282 0-21.1l6.074-6.074 68.143 68.143-6.072 6.075zm52.219-50.325-70.038-70.038 49.576-66.103 15.532 15.532-34.072 34.072c-3.945 3.945-3.945 10.342 0 14.287a10.074 10.074 0 0 0 7.143 2.959c2.586 0 5.17-.987 7.143-2.959L214.772 55.3l6.321 6.321-23.769 23.769c-3.945 3.945-3.945 10.342 0 14.287a10.074 10.074 0 0 0 7.143 2.959c2.586 0 5.17-.987 7.143-2.959l23.769-23.769 36.139 36.139-66.102 49.575z"/></svg>